<svg xmlns="http://www.w3.org/2000/svg" width="281" height="40" viewBox="0 0 281 40"><defs><clipPath id="r7lka"><path fill="#fff" d="M-1 40V0h282v40zm264.88-4.09c-4.302 0-7.603-1.405-9.902-4.216-2.299-2.811-3.448-6.79-3.448-11.936 0-5.13 1.161-9.088 3.485-11.875 2.324-2.786 5.628-4.18 9.914-4.18 4.302 0 7.599 1.382 9.89 4.143 2.29 2.762 3.436 6.733 3.436 11.912 0 5.195-1.146 9.186-3.436 11.973-2.291 2.786-5.604 4.179-9.94 4.179zm.005 2.36c5.027 0 8.97-1.66 11.827-4.978 2.859-3.32 4.288-7.83 4.288-13.534 0-5.72-1.421-10.232-4.263-13.534-2.842-3.303-6.776-4.954-11.803-4.954-4.994 0-8.932 1.643-11.815 4.93-2.883 3.285-4.324 7.789-4.324 13.509 0 5.736 1.429 10.264 4.287 13.583 2.858 3.319 6.793 4.978 11.803 4.978zm-34-.492V4.196h11.7v-2.36h-25.937v2.36h11.7v33.582zm-36.6.492c4.287 0 7.63-1.164 10.028-3.49 2.399-2.328 3.598-5.557 3.598-9.687V1.835h-2.514V25.34c0 3.36-.944 5.986-2.833 7.879-1.89 1.893-4.55 2.84-7.984 2.84-3.515 0-6.234-.963-8.156-2.89-1.922-1.925-2.883-4.617-2.883-8.075V1.835h-2.538v23.16c0 4.179 1.17 7.436 3.511 9.772 2.341 2.335 5.598 3.503 9.77 3.503zm-30.432-15.44h-12.877l5.047-12.906a39.388 39.388 0 0 0 1.453-4.278c.575 1.803 1.067 3.213 1.477 4.229zM144.04 37.779l5.028-12.685h14.641l5.004 12.685h2.835l-14.198-36.09h-1.602l-14.494 36.09zm-35.415 0V4.196h11.704v-2.36H94.382v2.36h11.704v33.582zm-32.91.492c3.663 0 6.6-.877 8.809-2.63 2.21-1.754 3.314-4.13 3.314-7.13 0-1.639-.324-3.036-.973-4.192-.649-1.155-1.68-2.188-3.093-3.097-1.412-.91-3.523-1.848-6.332-2.815-2.678-.951-4.567-1.766-5.668-2.447-1.1-.68-1.893-1.446-2.377-2.298-.485-.853-.727-1.942-.727-3.27 0-2.114.788-3.786 2.365-5.015 1.577-1.23 3.696-1.844 6.358-1.844 2.726 0 5.585.623 8.575 1.868l.911-2.163c-2.973-1.279-6.152-1.918-9.536-1.918-3.318 0-6.033.848-8.143 2.545-2.111 1.696-3.167 3.888-3.167 6.576 0 2.442.702 4.397 2.107 5.864 1.405 1.466 3.947 2.831 7.626 4.093 2.514.852 4.42 1.647 5.717 2.385 1.298.737 2.234 1.553 2.809 2.446.575.893.862 2.02.862 3.38 0 2.197-.866 3.97-2.6 5.323-1.732 1.352-4.077 2.028-7.034 2.028-4.025 0-7.335-.549-9.93-1.647v2.508c2.349.967 5.725 1.45 10.127 1.45zm-19.703-.492v-2.31H38.837V20.052H55.05v-2.311H38.837V4.146H56.01v-2.31H36.323v35.942zM3.413 35.576V20.053h7.935c7.03 0 10.546 2.468 10.546 7.405 0 5.412-3.335 8.118-10.004 8.118zm0-17.736V4.048h7.27c3.433 0 6.016.541 7.749 1.623 1.733 1.081 2.6 2.819 2.6 5.212s-.769 4.15-2.304 5.273c-1.536 1.123-3.996 1.684-7.38 1.684zm8.526 19.938c4.041 0 7.162-.893 9.363-2.68 2.202-1.786 3.302-4.334 3.302-7.645 0-2.475-.677-4.405-2.033-5.79-1.355-1.385-3.47-2.29-6.345-2.717V18.8c2.448-.393 4.309-1.283 5.582-2.667 1.273-1.385 1.91-3.119 1.91-5.2 0-3.049-1.044-5.327-3.13-6.835s-5.355-2.262-9.807-2.262H.9v35.943z"/></clipPath></defs><g><g opacity=".9"><path fill="#6b7df7" d="M273.819 31.73c2.29-2.786 3.436-6.777 3.436-11.972 0-5.18-1.146-9.15-3.436-11.912-2.291-2.761-5.588-4.142-9.89-4.142-4.286 0-7.59 1.393-9.914 4.18-2.324 2.786-3.485 6.744-3.485 11.874 0 5.146 1.15 9.125 3.448 11.936 2.299 2.81 5.6 4.216 9.902 4.216 4.335 0 7.648-1.393 9.939-4.18zm-21.737 1.562c-2.858-3.32-4.287-7.847-4.287-13.583 0-5.72 1.441-10.224 4.324-13.51 2.883-3.286 6.821-4.929 11.815-4.929 5.027 0 8.961 1.651 11.803 4.954C278.579 9.526 280 14.038 280 19.758c0 5.703-1.43 10.215-4.288 13.534-2.858 3.319-6.8 4.978-11.827 4.978-5.01 0-8.945-1.66-11.803-4.978zm-24.734 4.486V4.196h-11.7v-2.36h25.937v2.36h-11.7v33.582zm-43.834-3.011c-2.34-2.336-3.51-5.593-3.51-9.773V1.835h2.537v23.258c0 3.458.961 6.15 2.883 8.076 1.922 1.926 4.64 2.888 8.156 2.888 3.433 0 6.095-.946 7.984-2.84 1.889-1.892 2.833-4.519 2.833-7.878V1.835h2.514v23.258c0 4.13-1.2 7.359-3.598 9.686-2.398 2.327-5.741 3.491-10.029 3.491-4.172 0-7.429-1.168-9.77-3.503zm-25.56-24.892c-.411-1.016-.903-2.426-1.478-4.229-.443 1.574-.927 3-1.453 4.278l-5.047 12.907h12.877zm-16.7 27.903l14.493-36.09h1.602l14.198 36.09h-2.835l-5.004-12.685h-14.641l-5.028 12.685zm-35.168 0V4.196H94.382v-2.36h25.946v2.36h-11.704v33.582zm-40.5-.958v-2.508c2.596 1.098 5.906 1.647 9.93 1.647 2.958 0 5.303-.676 7.036-2.028 1.733-1.352 2.6-3.126 2.6-5.323 0-1.36-.288-2.487-.863-3.38-.575-.893-1.511-1.709-2.81-2.446-1.297-.738-3.202-1.533-5.716-2.385-3.68-1.262-6.222-2.627-7.626-4.093-1.405-1.467-2.107-3.422-2.107-5.864 0-2.688 1.056-4.88 3.167-6.576 2.11-1.697 4.825-2.545 8.143-2.545 3.384 0 6.563.64 9.536 1.918L85.964 5.4c-2.99-1.245-5.848-1.868-8.574-1.868-2.662 0-4.78.614-6.358 1.844-1.577 1.229-2.365 2.9-2.365 5.015 0 1.328.242 2.417.727 3.27.484.852 1.277 1.618 2.377 2.298 1.101.68 2.99 1.496 5.668 2.447 2.809.967 4.92 1.905 6.332 2.815 1.413.91 2.444 1.942 3.093 3.097.649 1.156.973 2.553.973 4.192 0 3-1.105 5.376-3.314 7.13-2.21 1.753-5.146 2.63-8.809 2.63-4.402 0-7.778-.483-10.127-1.45zm-29.263.958V1.835h19.688v2.311H38.837v13.596H55.05v2.31H38.837v15.415H56.01v2.311zM11.89 35.576c6.67 0 10.004-2.706 10.004-8.118 0-4.937-3.516-7.405-10.546-7.405H3.413v15.523zm-.542-17.736c3.384 0 5.844-.561 7.38-1.684 1.535-1.123 2.303-2.88 2.303-5.273s-.866-4.13-2.6-5.212c-1.732-1.082-4.315-1.623-7.749-1.623H3.413V17.84zM.9 37.778V1.835h9.88c4.453 0 7.722.754 9.808 2.262 2.086 1.508 3.13 3.786 3.13 6.835 0 2.081-.637 3.815-1.91 5.2-1.273 1.384-3.134 2.274-5.582 2.667v.147c2.875.427 4.99 1.332 6.345 2.717 1.356 1.385 2.033 3.315 2.033 5.79 0 3.31-1.1 5.86-3.302 7.646-2.2 1.786-5.322 2.68-9.363 2.68z"/><path fill="none" stroke="#6b7df7" stroke-miterlimit="50" stroke-width="2" d="M273.819 31.73c2.29-2.786 3.436-6.777 3.436-11.972 0-5.18-1.146-9.15-3.436-11.912-2.291-2.761-5.588-4.142-9.89-4.142-4.286 0-7.59 1.393-9.914 4.18-2.324 2.786-3.485 6.744-3.485 11.874 0 5.146 1.15 9.125 3.448 11.936 2.299 2.81 5.6 4.216 9.902 4.216 4.335 0 7.648-1.393 9.939-4.18zm-21.737 1.562c-2.858-3.32-4.287-7.847-4.287-13.583 0-5.72 1.441-10.224 4.324-13.51 2.883-3.286 6.821-4.929 11.815-4.929 5.027 0 8.961 1.651 11.803 4.954C278.579 9.526 280 14.038 280 19.758c0 5.703-1.43 10.215-4.288 13.534-2.858 3.319-6.8 4.978-11.827 4.978-5.01 0-8.945-1.66-11.803-4.978zm-24.734 4.486V4.196h-11.7v-2.36h25.937v2.36h-11.7v33.582zm-43.834-3.011c-2.34-2.336-3.51-5.593-3.51-9.773V1.835h2.537v23.258c0 3.458.961 6.15 2.883 8.076 1.922 1.926 4.64 2.888 8.156 2.888 3.433 0 6.095-.946 7.984-2.84 1.889-1.892 2.833-4.519 2.833-7.878V1.835h2.514v23.258c0 4.13-1.2 7.359-3.598 9.686-2.398 2.327-5.741 3.491-10.029 3.491-4.172 0-7.429-1.168-9.77-3.503zm-25.56-24.892c-.411-1.016-.903-2.426-1.478-4.229-.443 1.574-.927 3-1.453 4.278l-5.047 12.907h12.877zm-16.7 27.903l14.493-36.09h1.602l14.198 36.09h-2.835l-5.004-12.685h-14.641l-5.028 12.685zm-35.168 0V4.196H94.382v-2.36h25.946v2.36h-11.704v33.582zm-40.5-.958v-2.508c2.596 1.098 5.906 1.647 9.93 1.647 2.958 0 5.303-.676 7.036-2.028 1.733-1.352 2.6-3.126 2.6-5.323 0-1.36-.288-2.487-.863-3.38-.575-.893-1.511-1.709-2.81-2.446-1.297-.738-3.202-1.533-5.716-2.385-3.68-1.262-6.222-2.627-7.626-4.093-1.405-1.467-2.107-3.422-2.107-5.864 0-2.688 1.056-4.88 3.167-6.576 2.11-1.697 4.825-2.545 8.143-2.545 3.384 0 6.563.64 9.536 1.918L85.964 5.4c-2.99-1.245-5.848-1.868-8.574-1.868-2.662 0-4.78.614-6.358 1.844-1.577 1.229-2.365 2.9-2.365 5.015 0 1.328.242 2.417.727 3.27.484.852 1.277 1.618 2.377 2.298 1.101.68 2.99 1.496 5.668 2.447 2.809.967 4.92 1.905 6.332 2.815 1.413.91 2.444 1.942 3.093 3.097.649 1.156.973 2.553.973 4.192 0 3-1.105 5.376-3.314 7.13-2.21 1.753-5.146 2.63-8.809 2.63-4.402 0-7.778-.483-10.127-1.45zm-29.263.958V1.835h19.688v2.311H38.837v13.596H55.05v2.31H38.837v15.415H56.01v2.311zM11.89 35.576c6.67 0 10.004-2.706 10.004-8.118 0-4.937-3.516-7.405-10.546-7.405H3.413v15.523zm-.542-17.736c3.384 0 5.844-.561 7.38-1.684 1.535-1.123 2.303-2.88 2.303-5.273s-.866-4.13-2.6-5.212c-1.732-1.082-4.315-1.623-7.749-1.623H3.413V17.84zM.9 37.778V1.835h9.88c4.453 0 7.722.754 9.808 2.262 2.086 1.508 3.13 3.786 3.13 6.835 0 2.081-.637 3.815-1.91 5.2-1.273 1.384-3.134 2.274-5.582 2.667v.147c2.875.427 4.99 1.332 6.345 2.717 1.356 1.385 2.033 3.315 2.033 5.79 0 3.31-1.1 5.86-3.302 7.646-2.2 1.786-5.322 2.68-9.363 2.68z" clip-path="url(&quot;#r7lka&quot;)"/></g></g></svg>