<svg xmlns="http://www.w3.org/2000/svg" width="13" height="15" viewBox="0 0 13 15"><g><g opacity="1"><path fill="#f44e56" d="M9.006 14.064H3.187c-.01 0-.022-.007-.036-.022-.015-.014-.022-.026-.022-.036L2.06 3.275h8.07l-1.067 10.73a.05.05 0 0 1-.022.045.071.071 0 0 1-.036.014zM7.5 2.34H4.693V1.067a.14.14 0 0 1 .044-.102.14.14 0 0 1 .102-.044h2.515a.14.14 0 0 1 .102.044.14.14 0 0 1 .044.102zM9.006 15a.95.95 0 0 0 .665-.263.946.946 0 0 0 .314-.643l1.097-10.82h.643a.45.45 0 0 0 .33-.138.45.45 0 0 0 .138-.329.45.45 0 0 0-.139-.329.45.45 0 0 0-.329-.139h-3.29V1.067c0-.302-.107-.555-.321-.76A1.064 1.064 0 0 0 7.354 0H4.839c-.292 0-.546.102-.76.307a1.009 1.009 0 0 0-.322.76V2.34H.467a.45.45 0 0 0-.328.14.45.45 0 0 0-.139.328.45.45 0 0 0 .139.329.45.45 0 0 0 .329.139h.643l1.082 10.819c.03.253.139.467.329.643a.95.95 0 0 0 .665.263z"/></g></g></svg>
