<svg xmlns="http://www.w3.org/2000/svg" width="32" height="32" viewBox="0 0 32 32"><g><g opacity=".22"><path fill="#fff" d="M30.037 32c.547 0 1.01-.19 1.392-.571.38-.381.571-.845.571-1.392 0-.546-.199-1.002-.596-1.366L18.783 16l12.62-12.67c.398-.365.597-.82.597-1.367S31.81.953 31.429.57A1.894 1.894 0 0 0 30.037 0c-.546 0-1.002.199-1.366.596L16 13.217 3.33.597A1.777 1.777 0 0 0 1.962 0C1.416 0 .953.19.57.571A1.894 1.894 0 0 0 0 1.963c0 .546.199 1.002.596 1.366L13.217 16 .597 28.67c-.398.365-.597.82-.597 1.367s.19 1.01.571 1.392c.381.38.845.571 1.392.571.546 0 1.002-.199 1.366-.596L16 18.733l12.67 12.67c.365.398.82.597 1.367.597z"/></g></g></svg>