<svg xmlns="http://www.w3.org/2000/svg" width="20" height="20" viewBox="0 0 20 20"><g><g><path fill="#cfcfd3" d="M18.773 20c.342 0 .632-.12.87-.357.238-.238.357-.528.357-.87a1.11 1.11 0 0 0-.373-.854L11.74 10l7.888-7.92A1.11 1.11 0 0 0 20 1.228c0-.342-.12-.632-.357-.87a1.183 1.183 0 0 0-.87-.357 1.11 1.11 0 0 0-.854.373L10 8.26 2.08.373A1.11 1.11 0 0 0 1.228 0C.885 0 .595.119.357.357a1.183 1.183 0 0 0-.357.87c0 .341.124.626.373.854L8.26 10 .373 17.92a1.11 1.11 0 0 0-.373.853c0 .342.119.632.357.87s.528.357.87.357c.341 0 .626-.124.854-.373L10 11.708l7.92 7.92c.227.248.512.372.853.372z"/></g></g></svg>