<svg xmlns="http://www.w3.org/2000/svg" width="34" height="22" viewBox="0 0 34 22"><g><g><path fill="#cfcfd3" d="M24.966 15.59a9.069 9.069 0 0 0-1.984-3.798 5.431 5.431 0 0 1 3.601-1.414h.079c2.861.02 5.218 2.302 5.513 5.213zm-3.215 5.262H11.602c-1.342 0-2.436-1.141-2.436-2.542v-.465c0-4.242 3.248-7.713 7.288-7.836.072.007.15.007.223.007.072 0 .15 0 .222-.007 4.04.123 7.288 3.594 7.288 7.836v.465c0 1.4-1.094 2.542-2.436 2.542zM8.387 15.59H1.231c.294-2.91 2.651-5.193 5.513-5.213h.078a5.403 5.403 0 0 1 3.569 1.387 9.092 9.092 0 0 0-2.004 3.826zM4.053 6.43c0-1.57 1.224-2.845 2.73-2.845s2.73 1.276 2.73 2.845c0 1.548-1.198 2.81-2.678 2.844h-.104c-1.48-.028-2.678-1.29-2.678-2.844zm8.878-1.417c0-2.152 1.677-3.9 3.739-3.9 2.063 0 3.739 1.748 3.739 3.9 0 2.077-1.565 3.779-3.523 3.895h-.432c-1.958-.116-3.523-1.818-3.523-3.895zm10.961 1.417c0-1.57 1.224-2.845 2.73-2.845s2.73 1.276 2.73 2.845c0 1.548-1.197 2.81-2.677 2.844h-.105c-1.486-.028-2.678-1.29-2.678-2.844zm4.898 3.236a3.996 3.996 0 0 0 1.61-3.225c0-2.18-1.689-3.942-3.778-3.942-2.088 0-3.778 1.763-3.778 3.942 0 1.333.636 2.515 1.611 3.225-.831.3-1.59.765-2.233 1.367a8.37 8.37 0 0 0-3.064-1.743c1.382-.874 2.311-2.466 2.311-4.277 0-2.76-2.14-4.994-4.786-4.994-2.645 0-4.786 2.241-4.786 4.994 0 1.811.923 3.403 2.311 4.277a8.44 8.44 0 0 0-3.031 1.722A6.541 6.541 0 0 0 8.97 9.674a3.996 3.996 0 0 0 1.61-3.225c0-2.18-1.689-3.942-3.777-3.942-2.089 0-3.778 1.763-3.778 3.942 0 1.332.635 2.514 1.61 3.225C2.036 10.61.17 13.186.17 16.213v.45c0 .014.013.028.026.028h8.008a9.584 9.584 0 0 0-.072 1.154v.465c0 2.009 1.558 3.635 3.483 3.635h10.149c1.925 0 3.483-1.626 3.483-3.635v-.465c0-.389-.026-.778-.072-1.154h8.06c.014 0 .027-.014.027-.028v-.45c-.013-3.034-1.873-5.61-4.472-6.546z"/></g></g></svg>