<svg xmlns="http://www.w3.org/2000/svg" width="31" height="24" viewBox="0 0 31 24"><g><g><g><path fill="#c4cbfc" d="M24.498 8.4C24.435 3.784 20.661.05 16.032.05c-2.059 0-4.043.75-5.586 2.11a8.474 8.474 0 0 0-2.692 4.616h-.081C3.718 6.776.5 9.994.5 13.949s3.218 7.172 7.173 7.172h5.01a.645.645 0 0 0 0-1.29h-5.01a5.889 5.889 0 0 1-5.882-5.882 5.889 5.889 0 0 1 6.44-5.854.646.646 0 0 0 .7-.555A7.18 7.18 0 0 1 11.3 3.128a7.151 7.151 0 0 1 4.732-1.787c3.957 0 7.176 3.219 7.176 7.176 0 .142-.01.289-.022.444l-.005.066a.645.645 0 0 0 .709.688 5.076 5.076 0 0 1 5.585 5.045 5.076 5.076 0 0 1-5.07 5.07h-5.268a.645.645 0 0 0 0 1.291h5.268a6.369 6.369 0 0 0 6.361-6.361 6.369 6.369 0 0 0-6.268-6.36z"/></g><g><path fill="#c4cbfc" d="M16.03 3.09a5.444 5.444 0 0 0-5.374 4.692.646.646 0 0 0 1.279.174 4.149 4.149 0 0 1 4.095-3.575.645.645 0 1 0 0-1.291z"/></g><g><path fill="#c4cbfc" d="M18.971 15.789l-2.347-2.098a1.065 1.065 0 0 0-1.42 0l-2.349 2.098a.645.645 0 0 0 .86.962l1.553-1.386v7.94a.645.645 0 1 0 1.291 0v-7.94l1.553 1.386a.643.643 0 0 0 .911-.05.646.646 0 0 0-.051-.912z"/></g></g></g></svg>