<svg xmlns="http://www.w3.org/2000/svg" width="24" height="24" viewBox="0 0 24 24"><g><g><path fill="#6b7df7" d="M12.33 15c-.794 0-1.471-.293-2.033-.879-.561-.586-.842-1.293-.842-2.121 0-.828.28-1.535.842-2.121C10.86 9.293 11.537 9 12.33 9c.794 0 1.471.293 2.033.879.561.586.842 1.293.842 2.121 0 .828-.28 1.535-.842 2.121-.562.586-1.24.879-2.033.879zm-.005 1.5c1.197 0 2.217-.438 3.062-1.313.845-.874 1.268-1.937 1.268-3.187 0-1.25-.423-2.313-1.268-3.188-.845-.874-1.865-1.312-3.062-1.312-1.182 0-2.195.438-3.04 1.313C8.44 9.687 8.018 10.75 8.018 12c0 1.25.422 2.313 1.267 3.188.845.874 1.858 1.312 3.04 1.312zm.696 6h-1.302a.41.41 0 0 1-.079-.129 1.05 1.05 0 0 1-.056-.2l-.673-2.765-.764-.258a5.945 5.945 0 0 1-.583-.222 6.79 6.79 0 0 1-.584-.293l-.74-.399-2.358 1.57a.893.893 0 0 1-.146.083.36.36 0 0 1-.146.035l-.943-.961c0-.047.011-.102.034-.164a.767.767 0 0 1 .1-.188l1.46-2.554-.337-.727a6.058 6.058 0 0 1-.235-.504 4.645 4.645 0 0 1-.169-.48l-.247-.797-2.626-.703a1.18 1.18 0 0 1-.225-.059.373.373 0 0 1-.135-.082V11.32a.298.298 0 0 0 .102-.047.806.806 0 0 1 .145-.07l2.717-.633.247-.82c.045-.172.1-.344.168-.516.068-.172.146-.359.236-.562l.36-.727-1.46-2.53a1.344 1.344 0 0 1-.101-.212.496.496 0 0 1-.034-.164l.943-.984c.045.015.09.035.135.058l.112.059 2.402 1.594.741-.399c.195-.11.39-.207.584-.293.194-.086.389-.16.583-.222l.764-.258.65-2.719a.86.86 0 0 1 .068-.234c.03-.063.06-.11.09-.141h1.324l.045.082c.03.055.053.113.068.176l.583 2.836.786.281c.195.047.382.113.561.2.18.085.36.175.54.269l.74.398 2.312-1.547a.508.508 0 0 1 .292-.093l.943.96a.465.465 0 0 1-.034.141.768.768 0 0 1-.1.188l-1.415 2.46.36.75c.104.204.194.399.269.586.074.188.134.375.18.563l.246.82 2.672.633a.584.584 0 0 1 .202.082.79.79 0 0 1 .112.082l-.022 1.336a.389.389 0 0 1-.124.082.942.942 0 0 1-.19.059l-2.672.703-.247.773c-.06.188-.124.371-.191.551-.067.18-.146.356-.236.527l-.359.75 1.414 2.438c.045.078.079.148.101.21a.496.496 0 0 1 .034.165l-.943.984a1.004 1.004 0 0 1-.135-.058l-.112-.059-2.357-1.57-.74.398a8.44 8.44 0 0 1-1.078.469l-.786.281-.584 2.79a.669.669 0 0 1-.078.187.825.825 0 0 1-.079.117zm.028 1.5a1.3 1.3 0 0 0 1.022-.48c.277-.32.445-.66.505-1.02l.404-1.945c.24-.078.465-.164.674-.258.21-.094.42-.195.63-.305L17.9 21.07c.3.203.652.317 1.056.34.404.024.749-.113 1.033-.41L21 19.945c.285-.297.405-.648.36-1.054a2.538 2.538 0 0 0-.36-1.079l-.987-1.734a6.54 6.54 0 0 0 .28-.621c.083-.21.161-.434.236-.668l1.865-.469a2.64 2.64 0 0 0 .977-.515c.307-.25.46-.578.46-.985v-1.5c0-.422-.153-.777-.46-1.066-.307-.29-.633-.465-.978-.527l-1.841-.422a4.41 4.41 0 0 0-.236-.715c-.097-.227-.199-.45-.303-.668L21 6.187c.195-.312.314-.671.36-1.078A1.257 1.257 0 0 0 21 4.055L19.99 3a1.269 1.269 0 0 0-1.034-.41 2.054 2.054 0 0 0-1.056.34l-1.617 1.078a9.677 9.677 0 0 0-1.303-.563l-.404-1.968C14.501 1.133 14.33.8 14.06.48 13.79.16 13.453 0 13.05 0H11.61c-.404 0-.726.16-.966.48-.24.32-.396.66-.471 1.02l-.472 1.922a7.78 7.78 0 0 0-1.393.61L6.647 2.93c-.284-.203-.632-.317-1.044-.34A1.22 1.22 0 0 0 4.581 3L3.548 4.055a1.29 1.29 0 0 0-.337 1.054c.045.407.157.766.337 1.078l1.055 1.829c-.09.203-.18.414-.27.632-.089.22-.164.438-.224.657l-1.841.422c-.345.062-.67.238-.978.527-.307.289-.46.644-.46 1.066v1.5c0 .407.153.735.46.985.307.25.633.422.978.515l1.864.47c.06.218.13.425.213.62.082.195.169.387.258.574l-1.055 1.828c-.18.313-.292.672-.337 1.079a1.29 1.29 0 0 0 .337 1.054L4.58 21c.27.297.61.434 1.022.41.412-.023.76-.137 1.044-.34L8.31 19.97c.225.125.457.238.697.34.24.101.479.191.719.27l.449 1.921c.09.36.254.7.494 1.02.24.32.554.48.943.48z"/></g></g></svg>