<svg xmlns="http://www.w3.org/2000/svg" width="24" height="24" viewBox="0 0 24 24"><g><g><path fill="#cfcfd3" d="M12 15a2.89 2.89 0 0 1-2.121-.879A2.89 2.89 0 0 1 9 12c0-.828.293-1.535.879-2.121A2.89 2.89 0 0 1 12 9a2.89 2.89 0 0 1 2.121.879A2.89 2.89 0 0 1 15 12a2.89 2.89 0 0 1-.879 2.121A2.89 2.89 0 0 1 12 15zm0 1.5c1.25 0 2.316-.438 3.2-1.313.882-.874 1.323-1.937 1.323-3.187 0-1.25-.441-2.313-1.324-3.188C14.316 7.939 13.25 7.5 12 7.5c-1.234 0-2.293.438-3.176 1.313C7.941 9.687 7.5 10.75 7.5 12c0 1.25.441 2.313 1.324 3.188.883.874 1.942 1.312 3.176 1.312zm.727 6h-1.36a.407.407 0 0 1-.082-.129 1.016 1.016 0 0 1-.058-.2l-.704-2.765-.796-.258a6.376 6.376 0 0 1-.61-.222 7.217 7.217 0 0 1-.61-.293l-.773-.399-2.46 1.57a.945.945 0 0 1-.153.083.389.389 0 0 1-.152.035l-.985-.961c0-.047.012-.102.036-.164a.758.758 0 0 1 .105-.188l1.523-2.554-.351-.727a5.946 5.946 0 0 1-.246-.504 4.517 4.517 0 0 1-.176-.48l-.258-.797-2.742-.703a1.276 1.276 0 0 1-.234-.059.393.393 0 0 1-.141-.082V11.32c.016 0 .05-.015.105-.047a.859.859 0 0 1 .153-.07l2.836-.633.258-.82c.046-.172.105-.344.175-.516.07-.172.153-.359.246-.562l.375-.727-1.523-2.53a1.322 1.322 0 0 1-.105-.212.478.478 0 0 1-.036-.164l.985-.984c.047.015.093.035.14.058l.118.059 2.507 1.594.774-.399c.203-.11.406-.207.61-.293.202-.086.405-.16.609-.222l.796-.258.68-2.719a.833.833 0 0 1 .07-.234.545.545 0 0 1 .094-.141h1.383l.047.082a.69.69 0 0 1 .07.176l.61 2.836.82.281c.203.047.398.113.586.2.187.085.375.175.562.269l.774.398 2.414-1.547a.557.557 0 0 1 .305-.094l.984.961a.449.449 0 0 1-.035.141.758.758 0 0 1-.106.188l-1.476 2.46.375.75c.11.204.203.399.28.586.08.188.142.375.188.563l.258.82 2.79.633a.625.625 0 0 1 .21.082c.063.04.102.067.117.082l-.023 1.336a.407.407 0 0 1-.129.082 1.016 1.016 0 0 1-.2.059l-2.788.703-.258.773c-.063.188-.129.371-.2.551-.07.18-.152.356-.245.527l-.375.75 1.476 2.438c.047.078.082.148.106.21a.477.477 0 0 1 .035.165l-.985.984a1.073 1.073 0 0 1-.14-.058l-.117-.059-2.461-1.57-.774.398a8.984 8.984 0 0 1-1.125.469l-.82.281-.61 2.79a.653.653 0 0 1-.081.187.823.823 0 0 1-.082.117zm.023 1.5c.422 0 .777-.16 1.066-.48.29-.32.465-.66.528-1.02l.422-1.945c.25-.078.484-.164.703-.258.219-.094.437-.195.656-.305l1.688 1.078c.312.203.68.317 1.101.34.422.024.781-.113 1.078-.41l1.055-1.055c.297-.297.422-.648.375-1.054a2.467 2.467 0 0 0-.375-1.079l-1.031-1.734c.109-.203.207-.41.293-.621.086-.21.168-.434.246-.668l1.945-.469c.36-.093.7-.265 1.02-.515.32-.25.48-.578.48-.985v-1.5c0-.422-.16-.777-.48-1.066-.32-.29-.66-.465-1.02-.527l-1.922-.422a4.284 4.284 0 0 0-.246-.715c-.102-.227-.207-.45-.316-.668l1.03-1.735c.204-.312.329-.671.376-1.078a1.226 1.226 0 0 0-.375-1.054L19.992 3a1.354 1.354 0 0 0-1.078-.41c-.422.023-.789.137-1.102.34l-1.687 1.078a10.298 10.298 0 0 0-1.36-.563l-.421-1.968c-.078-.344-.258-.676-.54-.997A1.346 1.346 0 0 0 12.75 0h-1.5c-.422 0-.758.16-1.008.48-.25.32-.414.66-.492 1.02l-.492 1.922a8.339 8.339 0 0 0-1.453.61L6.07 2.93c-.297-.203-.66-.317-1.09-.34-.43-.024-.785.113-1.066.41L2.836 4.055a1.256 1.256 0 0 0-.352 1.054c.047.407.164.766.352 1.078l1.102 1.829c-.094.203-.188.414-.282.632a5.505 5.505 0 0 0-.234.657L1.5 9.727c-.36.062-.7.238-1.02.527-.32.289-.48.644-.48 1.066v1.5c0 .407.16.735.48.985.32.25.66.422 1.02.515l1.945.47c.063.218.137.425.223.62s.176.387.27.574l-1.102 1.828a2.662 2.662 0 0 0-.352 1.079c-.047.406.07.757.352 1.054L3.914 21c.281.297.637.434 1.066.41.43-.023.793-.137 1.09-.34l1.735-1.101c.234.125.476.238.726.34.25.101.5.191.75.27L9.75 22.5c.094.36.266.7.516 1.02.25.32.578.48.984.48z"/></g></g></svg>