<svg xmlns="http://www.w3.org/2000/svg" width="24" height="24" viewBox="0 0 24 24"><g><g transform="matrix(-1 0 0 1 24 0)"><g><path fill="#cfcfd3" d="M15.684 18a.49.49 0 0 0-.479.5V22c0 .551-.43 1-.958 1h-11.5c-.529 0-.959-.449-.959-1V2c0-.551.43-1 .959-1h11.5c.528 0 .958.449.958 1v3.5c0 .276.214.5.48.5a.49.49 0 0 0 .478-.5V2c0-1.103-.86-2-1.916-2h-11.5C1.69 0 .83.897.83 2v20c0 1.103.86 2 1.917 2h11.5c1.057 0 1.916-.897 1.916-2v-3.5a.49.49 0 0 0-.479-.5z"/></g><g><path fill="#cfcfd3" d="M23.675 11.631l-5.75-5.5a.466.466 0 0 0-.677.031.516.516 0 0 0 .029.707l4.842 4.63H7.06a.49.49 0 0 0-.479.5c0 .277.214.5.48.5h15.06l-4.843 4.632a.516.516 0 0 0-.03.707.47.47 0 0 0 .678.03l5.75-5.5A.51.51 0 0 0 23.83 12a.51.51 0 0 0-.155-.369z"/></g></g></g></svg>