<svg xmlns="http://www.w3.org/2000/svg" width="18" height="12" viewBox="0 0 18 12"><g><g><path fill="#6b7df7" d="M9.053 8.193a2.223 2.223 0 0 1-1.588-.646c-.45-.43-.676-.946-.676-1.547 0-.6.22-1.113.658-1.538a2.2 2.2 0 0 1 1.588-.638c.62 0 1.15.213 1.588.638.438.425.658.937.658 1.538 0 .6-.217 1.116-.65 1.547-.432.43-.958.646-1.578.646zm0 1.087c.935 0 1.73-.317 2.386-.951a3.098 3.098 0 0 0 .982-2.312c0-.895-.327-1.663-.982-2.303-.655-.64-1.45-.96-2.386-.96-.924 0-1.717.32-2.378.96-.66.64-.99 1.408-.99 2.303 0 .907.33 1.677.99 2.312a3.31 3.31 0 0 0 2.378.951zM9 10.912a9.164 9.164 0 0 1-2.35-.306A8.469 8.469 0 0 1 2.578 8.16a7.958 7.958 0 0 1-1.421-2.142 7.958 7.958 0 0 1 1.42-2.142 8.632 8.632 0 0 1 4.096-2.473 9.03 9.03 0 0 1 2.361-.314c.795 0 1.579.105 2.351.314a8.49 8.49 0 0 1 4.053 2.473 8.192 8.192 0 0 1 1.403 2.142 8.073 8.073 0 0 1-1.412 2.142 8.468 8.468 0 0 1-1.877 1.53 8.442 8.442 0 0 1-2.193.917 9.265 9.265 0 0 1-2.36.306zM9 12a10.038 10.038 0 0 0 5.263-1.487 9.613 9.613 0 0 0 2.123-1.776 8.97 8.97 0 0 0 1.544-2.414c.012-.011.017-.02.017-.026v-.025l.003-.002.015-.015v-.051c0-.011.006-.023.017-.034 0-.023.003-.048.01-.077A.382.382 0 0 0 18 6.017a.271.271 0 0 0-.009-.068.271.271 0 0 1-.009-.068.128.128 0 0 1-.017-.051v-.034c0-.011-.003-.02-.009-.025l-.009-.009v-.025c0-.006-.005-.015-.017-.026a9.107 9.107 0 0 0-1.544-2.422 9.882 9.882 0 0 0-2.105-1.793 9.571 9.571 0 0 0-2.5-1.114 10.064 10.064 0 0 0-5.5 0 9.83 9.83 0 0 0-2.527 1.114 9.875 9.875 0 0 0-2.131 1.793 9.336 9.336 0 0 0-1.57 2.422v.051l-.01.009a5.248 5.248 0 0 0-.008.008v.051c0 .011-.006.023-.017.034a.382.382 0 0 1-.01.077.382.382 0 0 0-.008.076c0 .023.003.045.009.068a.271.271 0 0 1 .009.068c.011.023.017.04.017.051v.034c0 .011.003.02.009.025l.009.009v.05c.409.907.93 1.712 1.561 2.415a9.613 9.613 0 0 0 2.123 1.776A10.038 10.038 0 0 0 9 12z"/></g></g></svg>