<svg xmlns="http://www.w3.org/2000/svg" width="18" height="16" viewBox="0 0 18 16"><g><g><path fill="#cfcfd3" d="M6.254 13.622c-.421-.12-.831-.265-1.228-.436l-2.244 2.243-.707-.707 2.004-2.004a9.613 9.613 0 0 1-2.465-1.977A9.317 9.317 0 0 1 .053 8.328v-.051l-.01-.009c-.005-.006-.008-.014-.008-.025v-.034a.128.128 0 0 0-.017-.051.271.271 0 0 0-.01-.068A.271.271 0 0 1 0 8.022c0-.023.003-.049.009-.077a.382.382 0 0 0 .009-.076c.011-.012.017-.023.017-.034v-.051l.009-.009.009-.008v-.051a9.336 9.336 0 0 1 1.57-2.422A9.875 9.875 0 0 1 3.754 3.5a9.83 9.83 0 0 1 2.527-1.113 10.064 10.064 0 0 1 5.5 0c.659.188 1.285.439 1.877.753l2.56-2.56.707.707-2.384 2.384c.67.454 1.285.995 1.845 1.623a9.107 9.107 0 0 1 1.544 2.422c.012.011.017.02.017.025v.026l.01.008c.005.006.008.014.008.026v.034c0 .011.006.028.017.05 0 .023.003.046.01.069a.271.271 0 0 1 .008.068.382.382 0 0 1-.009.076.382.382 0 0 0-.009.077c-.011.01-.017.022-.017.034v.05l-.015.015-.003.003v.025c0 .006-.005.014-.017.026a8.97 8.97 0 0 1-1.544 2.413 9.613 9.613 0 0 1-2.123 1.776A10.038 10.038 0 0 1 9 14.005a9.97 9.97 0 0 1-2.746-.383zm6.167-5.601a3.1 3.1 0 0 1-.982 2.313c-.655.634-1.45.952-2.386.952a3.335 3.335 0 0 1-1.692-.434L5.853 12.36A9.16 9.16 0 0 0 9 12.918a9.26 9.26 0 0 0 2.36-.306 8.44 8.44 0 0 0 2.193-.918 8.469 8.469 0 0 0 1.877-1.53 8.077 8.077 0 0 0 1.412-2.143 8.197 8.197 0 0 0-1.403-2.143 8.53 8.53 0 0 0-1.684-1.424l-1.838 1.839c.336.51.504 1.086.504 1.728zm-6.737.001c0-.895.33-1.663.991-2.304.661-.64 1.454-.96 2.378-.96.848 0 1.58.262 2.198.788l1.596-1.597a8.522 8.522 0 0 0-1.461-.544 8.928 8.928 0 0 0-2.35-.314c-.796 0-1.583.105-2.36.314A8.63 8.63 0 0 0 2.578 5.88a7.962 7.962 0 0 0-1.421 2.142c.374.816.848 1.53 1.42 2.143a8.649 8.649 0 0 0 2.297 1.76l1.695-1.696a3.072 3.072 0 0 1-.886-2.207zm3.351-2.197c-.62 0-1.149.213-1.588.64a2.07 2.07 0 0 0-.658 1.54c0 .552.19 1.032.567 1.44l3.113-3.119a2.19 2.19 0 0 0-1.434-.5zm1.597 3.728c.432-.432.649-.948.649-1.55 0-.322-.063-.618-.188-.89l-2.91 2.919c.27.112.56.169.87.169.62 0 1.146-.216 1.579-.648z"/></g></g></svg>