<svg xmlns="http://www.w3.org/2000/svg" width="16" height="16" viewBox="0 0 16 16"><g><g><path fill="#404b94" d="M6.333 12c-1.583 0-2.916-.542-4-1.625C1.223 9.264.667 7.917.667 6.333c0-1.555.555-2.889 1.666-4 1.111-1.11 2.445-1.666 4-1.666 1.556 0 2.89.555 4 1.666C11.444 3.444 12 4.778 12 6.333c0 1.556-.556 2.89-1.667 4C9.223 11.444 7.89 12 6.333 12zm8.709 4l.958-.958-4.708-4.75c.916-1.14 1.375-2.459 1.375-3.959 0-1.75-.618-3.243-1.855-4.479C9.576.618 8.084 0 6.333 0S3.09.618 1.854 1.854C.618 3.09 0 4.584 0 6.334c0 1.75.618 3.242 1.854 4.479 1.236 1.236 2.73 1.854 4.48 1.854 1.527 0 2.86-.459 4-1.375z"/></g></g></svg>